<svg id="Layer_1" data-name="Layer 1" xmlns="http://www.w3.org/2000/svg" viewBox="0 0 563.08 440.01"><defs><style>.cls-1{fill:#1f1e18;}.cls-2{fill:#3b5797;}.cls-18,.cls-3{fill:#cecece;}.cls-10,.cls-11,.cls-3{stroke:#7f7e7d;}.cls-10,.cls-11,.cls-12,.cls-13,.cls-26,.cls-3,.cls-7,.cls-9{stroke-miterlimit:10;}.cls-4{fill:#ecda9f;}.cls-5{fill:#c1af7b;}.cls-6{fill:#153671;}.cls-10,.cls-13,.cls-26,.cls-7{fill:none;}.cls-7,.cls-9{stroke:#000;}.cls-8{fill:#666564;}.cls-9{fill:#0b090b;}.cls-11{fill:#7f7e7d;}.cls-12{fill:#040006;stroke:#040006;}.cls-13{stroke:#c69c27;stroke-width:2px;}.cls-14{opacity:0.75;}.cls-15{fill:#dbcb95;}.cls-16{fill:#704e36;}.cls-17{fill:#3e5ca1;}.cls-19{fill:#1e3170;}.cls-20{fill:#fff;}.cls-21{fill:#55abcd;}.cls-22{fill:#f4e6cb;}.cls-23{fill:#393931;}.cls-24{fill:#ae1e44;}.cls-25{fill:#413a2d;}.cls-26{stroke:#704e36;}.cls-27{fill:#2f263b;}.cls-28{fill:#19101e;}.cls-29{fill:#c12b36;}.cls-30{fill:#c12c3a;}.cls-31{fill:#b91e35;}.cls-32{fill:#00287b;}.cls-33{fill:#be982c;}.cls-34{fill:#3e3f3f;}.cls-35{fill:#070108;}.cls-36{fill:#c33835;}.cls-37{fill:#c0281a;}.cls-38{fill:#e1e0de;}</style></defs><title>logo</title><g id="Detalhes_da_roupa" data-name="Detalhes da roupa"><path class="cls-1" d="M204.2,582.25s-.75,15-3,18.17-3.91,9.9-3.53,10.56,7.82,5.76,16,5.87,21.83-.78,23.31-1.62,1.15-5.09,0-7.18-6.55-11.68-6.7-12.21-.82-7.25.3-9.14S204.2,582.25,204.2,582.25Z" transform="translate(-13.82 -184.47)"/><path class="cls-1" d="M240,578.85s-4.09,17.14-2.83,19.2.69,4.39,2.42,4.36,27.44-.33,33,.85c5.84.37,15.2,1.58,16.46,1.74s10,.78,11.15-.45a9.41,9.41,0,0,0,2.87-4.27,4.86,4.86,0,0,0-2.83-4.44c-2.9-1.41-12.39-5.28-13.13-5.53s-18.4-5-18.94-5.28-5-2.88-5-4.82-4.85-5.65-5.18-5.65S240,578.85,240,578.85Z" transform="translate(-13.82 -184.47)"/><path class="cls-2" d="M187.75,305.78,163,309.41l-13.61,14.4L138,338.59s-5.65,9.77-6.45,11.44-5.3,12.39-5.3,12.39.8.16,2.49-1.7,10.72-6.76,16.16-6.89a33.06,33.06,0,0,1,6.41-.71c3.53,0,8.57.24,10.92,1.78s5,4,5.78,5.75a26.83,26.83,0,0,1,1,2.54s3.19,2.24,3.82,1.94,9.84-15.16,10.69-14,2.56,13.67,2.67,14.05,13.62,62.74,8.67,71.76c1.85,1.85,77.18-4.12,77.29-4.74-2.23-4.51-5.48-49.27-.24-87.93,10.23,5.67,25,12,25,12s23.21-4.31,17.95-32.64c-31.25-26.92-46.77-27.33-51.9-26.88" transform="translate(-13.82 -184.47)"/><path class="cls-3" d="M234.2,420.5l2.27,54.41s.05,4.24.17,10.61-2.27,63.1-2.49,74.05-2.28,19,4.89,19c.8,0,28.59-1,29-3.84s11.27-99.67,8.18-116.39c-.79-17.6-5-42.2-5-42.2l-37.37,3.28Z" transform="translate(-13.82 -184.47)"/><path class="cls-3" d="M192.39,421.55s7.07,160.06,8.88,160.72,36.84,7.68,36.57,6.13,2.82-128.67,4.32-133.91c-.69-8.91.75-30-1.63-33.68S192.39,421.55,192.39,421.55Z" transform="translate(-13.82 -184.47)"/><path class="cls-4" d="M125.42,365.14s3.47-8.51,14.91-10.27,19.67-3.13,22.61.46c3.37,2.86,5.13,5,6.67,8.86,3.56,1.75,16.82,1,17.35.77s11.3-13.09,21.53-10.92,5.36,6.86,5.36,6.86,10.91,4.54,10.66,7.83c-.43,2.72-2.8,5.77-3.63,5.28.34.79,2,2.47,2,4.37.28,4-2.69,6.5-3.64,6.61s.93-.91.68,2.75-2,5-2,5,2.85,5.73-4.06,8.44c-8.93,4.09-24.49.61-27.7-2.63-1.58-2.64-26.08-1.61-26.08-1.61s-20.9,4.09-31.73-5.36c-4.06-6.34-4.35-7.85-4.82-13.59A91.94,91.94,0,0,1,125.42,365.14Z" transform="translate(-13.82 -184.47)"/><path class="cls-4" d="M195.17,284.09l1.5,13.1,2.79,15.43L223,326s10.38,2.38,12.72,4.46,7.27,7.3,7.46,8.41a37.89,37.89,0,0,0,.35-5.23c-.12-.32-.76-5.93.75-8.55s5.53-9.64,4.59-14.21-5.85-18-5.85-18" transform="translate(-13.82 -184.47)"/><path class="cls-5" d="M194.84,284.54s18.33,11.56,21.86,14c2.49,1.59,16.37.81,19,0,2.9-.71,7.33-1.71,7.66-3a18.55,18.55,0,0,0,0-4.39l-44.25-7.91-3.21-.87Z" transform="translate(-13.82 -184.47)"/><path class="cls-6" d="M185,306.64s29,27.4,36.86,27.72c2.3-5.56,11.76-4.95,11.76-4.95s-35.29-23.05-35.43-28c0,0-.25-5.53-2.35-5.47C192.8,296.6,184.35,299.73,185,306.64Z" transform="translate(-13.82 -184.47)"/><path class="cls-6" d="M244.15,294.25c15,.81,12.27,28.37,12.27,28.37s-3.84-3.65-12.24,2.74a23.68,23.68,0,0,0-2.83-24.28S237.74,296.77,244.15,294.25Z" transform="translate(-13.82 -184.47)"/><path d="M241.79,344a4.67,4.67,0,0,0,.78-2,19.86,19.86,0,0,0,.28-2.19c.13-1.47.16-2.95.15-4.42s-.12-3-.08-4.44.1-3,.29-4.46h.1a25.88,25.88,0,0,1,.61,4.45,35.33,35.33,0,0,1-.12,4.48c-.09,1.49-.22,3-.45,4.46a18.35,18.35,0,0,1-.48,2.2,5,5,0,0,1-1,2Z" transform="translate(-13.82 -184.47)"/><path d="M235,329.77a38.62,38.62,0,0,1,4.92,4,13.57,13.57,0,0,1,2.14,2.4,7.15,7.15,0,0,1,1.19,3l-.09,0c-.62-.88-1.26-1.67-1.91-2.47s-1.23-1.65-1.91-2.44-1.39-1.56-2.13-2.3-1.48-1.49-2.27-2.2Z" transform="translate(-13.82 -184.47)"/><circle class="cls-7" cx="225.08" cy="152.52" r="0.78"/><circle class="cls-7" cx="231.22" cy="156.8" r="0.78"/><path d="M245.47,335.56a6.29,6.29,0,0,1-.18-1c0-.17-.12-.36,0-.51a1,1,0,0,1,.52-.41l.1,0a1.06,1.06,0,0,1,.36.57c.05.17-.11.31-.18.46a6.35,6.35,0,0,1-.51.91Z" transform="translate(-13.82 -184.47)"/><path class="cls-8" d="M231.29,602.57a56.51,56.51,0,0,0-6.8-2.69,17.83,17.83,0,0,0-7.07-1.12c-2.4.24-4.78.79-7.19,1.19s-4.81.84-7.25,1.14l0-.1a60.17,60.17,0,0,1,7.08-2,45.88,45.88,0,0,1,7.32-1,18.33,18.33,0,0,1,7.28,1.44,56.15,56.15,0,0,1,6.69,3.07Z" transform="translate(-13.82 -184.47)"/><path class="cls-9" d="M238.77,602.08v6l11.3-.18c3.37-.12,5.68-.12,8.76-.12,0-.77-.77-2.31,1.54-2.31,12.3,0,23.84,3.85,36.14,2.31a10.4,10.4,0,0,0,5.31-4.42" transform="translate(-13.82 -184.47)"/><path class="cls-10" d="M226.05,422.24s5.7,23.57-17,26" transform="translate(-13.82 -184.47)"/><path class="cls-10" d="M268.39,417.75c.47,4-.44,11.07,4.84,12" transform="translate(-13.82 -184.47)"/><path class="cls-3" d="M202.12,502.82s13.43,2.7,22.66,2c-2.31,10.88-2.55,27-3.29,29.17H204.36Z" transform="translate(-13.82 -184.47)"/><path class="cls-3" d="M266.16,501.76s3.52,2.44,10.44,1.69c-1.2,11.48-1.57,27.19-2.27,29.43h-6.49Z" transform="translate(-13.82 -184.47)"/><polyline class="cls-3" points="189.05 325 196.13 327.37 209.76 326.19"/><polyline class="cls-3" points="252.82 326.19 261.25 329.66 262.09 327.13"/><ellipse class="cls-11" cx="196.57" cy="325.65" rx="0.62" ry="0.53"/><ellipse class="cls-11" cx="230.67" cy="237.53" rx="0.46" ry="0.53"/><path class="cls-11" d="M274.44,511.87a.54.54,0,1,1-.46.53A.5.5,0,0,1,274.44,511.87Z" transform="translate(-13.82 -184.47)"/><path class="cls-3" d="M274.91,511.27" transform="translate(-13.82 -184.47)"/><path class="cls-10" d="M242.05,454.52s9.15,1.3,5.2-35.19" transform="translate(-13.82 -184.47)"/><path class="cls-12" d="M191.51,416.11a38.45,38.45,0,0,0,.38,5.09c2,.21,78.65-4.91,79.7-5.41.11-1,.44-8-.75-7.9C271.18,411.75,191.51,416.11,191.51,416.11Z" transform="translate(-13.82 -184.47)"/><polygon class="cls-13" points="238.41 233.72 227.29 234.63 226.85 228.28 237.97 227.37 238.41 233.72"/><rect class="cls-11" x="201.99" y="415.53" width="1.08" height="5.85" transform="translate(-21.28 -180.78) rotate(-1.03)"/><rect class="cls-11" x="213.74" y="414.81" width="1.08" height="6.15" transform="translate(-21.27 -180.57) rotate(-1.03)"/><rect class="cls-11" x="225.48" y="413.98" width="1.08" height="6.16" transform="translate(-21.25 -180.36) rotate(-1.03)"/><rect class="cls-11" x="258.49" y="410.48" width="1.08" height="7.56" transform="translate(-58.24 -153.13) rotate(-6.38)"/><rect class="cls-11" x="269.07" y="408.5" width="1.08" height="7.88" transform="translate(-88.78 -124.26) rotate(-11.2)"/><path class="cls-4" d="M314.77,324.24c-.15.55,5.86,24.1-16.83,31.7.49.86,2.95,1.74,2.95,1.74s15,5.57,17.32,5.08,4,.14,9.41-1.66,38.88-19.39,38.88-19.39a30.39,30.39,0,0,1,12.73-.9c7.23-.22,7.09.3,8.81-.63s5.8-2.54,6.25-2.86,4.08-3.41,5.19-5.45,1.93-3.2.27-6.09-16.86-20.89-20-21.33c-2.67-1.25-2.59-.73-2.59-.73s-5.33,2.85-5.94,3a6.49,6.49,0,0,1-6.56-.87c-2.8-2.5-7-6.47-7-6.47s-4.45-2-5.76-.75-3,1.85-1,3.76,6.08,3.5,6.4,6.43.13,6.08-2.22,8.9a15.74,15.74,0,0,1-7.88,5.1c-2.29.54-10.57,2-12,2.39s-11.73,4.5-11.76,4.95c-1.29-1.13-8.35-6.41-8.64-6.6C314.65,323.71,314.77,324.24,314.77,324.24Z" transform="translate(-13.82 -184.47)"/><g class="cls-14"><path class="cls-15" d="M375.54,306.27a47.78,47.78,0,0,0-5.09,5.27,10.17,10.17,0,0,0-1.85,3c-.17.55-.13,1,.27,1.24a3.12,3.12,0,0,0,1.57.27,30.49,30.49,0,0,0,3.57-.53l3.59-.66c2.4-.44,4.78-.95,7.14-1.62a0,0,0,0,1,.06,0,0,0,0,0,1,0,.06,29.75,29.75,0,0,1-7,2.5c-1.2.27-2.42.52-3.64.68a30,30,0,0,1-3.73.36,3.75,3.75,0,0,1-2-.47,1.44,1.44,0,0,1-.63-1,2.3,2.3,0,0,1,.14-1.06,10.54,10.54,0,0,1,2.1-3.14,48.38,48.38,0,0,1,5.41-5,0,0,0,0,1,.07,0A0,0,0,0,1,375.54,306.27Z" transform="translate(-13.82 -184.47)"/><path class="cls-15" d="M386.69,313.62a57.44,57.44,0,0,0-7.42,3.09,21.93,21.93,0,0,0-3.39,2.07,6.9,6.9,0,0,0-1.35,1.35,1.78,1.78,0,0,0-.38,1.55,1.62,1.62,0,0,0,1.23.91,8.2,8.2,0,0,0,1.88.23,32.77,32.77,0,0,0,3.94-.23c2.65-.26,5.29-.74,7.95-1.14a.05.05,0,0,1,.06,0,.07.07,0,0,1,0,.06,41.54,41.54,0,0,1-7.85,2,20.73,20.73,0,0,1-4.1.24,8.11,8.11,0,0,1-2.1-.36,3.57,3.57,0,0,1-1-.52,2,2,0,0,1-.72-1,2.55,2.55,0,0,1,.57-2.21,7.52,7.52,0,0,1,1.55-1.44,22.32,22.32,0,0,1,3.56-2,56.11,56.11,0,0,1,7.61-2.73,0,0,0,0,1,.06,0A.06.06,0,0,1,386.69,313.62Z" transform="translate(-13.82 -184.47)"/><path class="cls-15" d="M389.72,321.92a62.91,62.91,0,0,0-7,2.19,23.38,23.38,0,0,0-3.29,1.51,7,7,0,0,0-1.4,1,1.27,1.27,0,0,0-.44,1.27c.13.36.65.61,1.18.75a8.1,8.1,0,0,0,1.72.22c1.18.05,2.39,0,3.59-.08,2.42-.12,4.83-.44,7.29-.64a0,0,0,0,1,.05.05.05.05,0,0,1,0,0,35.39,35.39,0,0,1-7.23,1.54,20.28,20.28,0,0,1-3.74.05,9.89,9.89,0,0,1-1.9-.35,2.4,2.4,0,0,1-1.67-1.33,2,2,0,0,1,.68-2,7.25,7.25,0,0,1,1.59-1.09,23.63,23.63,0,0,1,3.43-1.42,63.18,63.18,0,0,1,7.13-1.83s.05,0,.06,0S389.75,321.91,389.72,321.92Z" transform="translate(-13.82 -184.47)"/><path class="cls-15" d="M398.19,333.66a65.83,65.83,0,0,1-6.5,3,31,31,0,0,1-3.42,1.11,9.55,9.55,0,0,1-3.68.36,2.91,2.91,0,0,1-1-.33,2.27,2.27,0,0,1-.77-.77,2.44,2.44,0,0,1-.17-2.1,7.3,7.3,0,0,1,2.3-3,16.43,16.43,0,0,1,6.43-3.27s.05,0,.06,0,0,.05,0,.06a26.82,26.82,0,0,0-5.8,3.94,8,8,0,0,0-2.05,2.56,1.46,1.46,0,0,0,1.14,2.11,9.14,9.14,0,0,0,3.39-.21,31.19,31.19,0,0,0,3.4-.95,65.91,65.91,0,0,0,6.62-2.61.07.07,0,0,1,.07,0A0,0,0,0,1,398.19,333.66Z" transform="translate(-13.82 -184.47)"/></g></g><g id="Cabeça"><g id="Base_Rosto" data-name="Base Rosto"><path class="cls-4" d="M173.54,232.05l.11,6.82S158,243.43,161.3,253.54s10.53,12.51,17.29,12.68c1.86,6,5.39,11.69,12,15.35,9.94,5.52,23.88,17.59,38.54,16.66s21.67-9.59,23.68-15.92l2-6.33s4.78,2.71,7.17-5.23,2.88-14.62-1.36-16.46c.59-5.7,3.81-26,3.81-26L214.48,203.4Z" transform="translate(-13.82 -184.47)"/><path class="cls-16" d="M195.28,220.09,192,234.19s-4.55,1.27-5.13,21.95c-3.54-.3-4.33-.8-4.33-.8l-2.59-16.85-6.64-1.7.06-7.09s16.75-8.37,19.28-8.73S195.28,220.09,195.28,220.09Z" transform="translate(-13.82 -184.47)"/></g><g id="Bone"><path class="cls-17" d="M172.32,238.59s6.44-7.53,20.1-10.6c45,5.42,50.36-3.66,70.72,6.4,13.29,9.76,16.59,9,16.59,9s10.28.84,11.18-7.87.54-16.86-12.4-19c-11.69-.89-18.44-1-18.44-1s-2.5-20.83-4.4-23c-9.77-13.33-76.65-10.12-79.26,11.36C175.12,206.89,172.32,238.59,172.32,238.59Z" transform="translate(-13.82 -184.47)"/><path class="cls-18" d="M227.83,184.53c-29.31-1-33.91,43.64-33.91,43.64s54.62-12.48,66.15-12.76c0,0-1.7-22.13-6.21-24.8C247.69,184.76,227.83,184.53,227.83,184.53Z" transform="translate(-13.82 -184.47)"/><path class="cls-19" d="M245.6,229.46s5.47-2.56,29.81,12.7c13,4.43,16.62-5.27,15.8-11.34C288.61,211.46,245.6,229.46,245.6,229.46Z" transform="translate(-13.82 -184.47)"/></g><g id="Olhos"><circle class="cls-20" cx="211.13" cy="71.81" r="7.03"/><circle class="cls-21" cx="209.26" cy="71.37" r="3.44"/><circle class="cls-20" cx="208.25" cy="69.74" r="0.8"/><ellipse class="cls-20" cx="249.8" cy="257.19" rx="7.45" ry="6.96" transform="translate(-71.29 257.46) rotate(-76.85)"/><circle class="cls-21" cx="234.64" cy="72.14" r="3.44"/><ellipse class="cls-20" cx="247.36" cy="254.9" rx="0.75" ry="0.69" transform="translate(-70.95 253.32) rotate(-76.85)"/></g><ellipse class="cls-22" cx="204.74" cy="265.33" rx="4.25" ry="7.41" transform="translate(-92.07 260.41) rotate(-84.74)"/><g id="Boca"><path class="cls-23" d="M212.1,275.55l32.15,3.35s-4.47,17.24-12.23,14.29S213.78,280.45,212.1,275.55Z" transform="translate(-13.82 -184.47)"/><path class="cls-20" d="M241.47,278.59s.2,4.41-7.37,4-17.43-.5-17.83-.91c-.78-.49-4.56-5.66-4.33-6.25C213.06,275.41,241.47,278.59,241.47,278.59Z" transform="translate(-13.82 -184.47)"/><path class="cls-24" d="M219.76,285.13s15.39-1.17,13.75,8.39c-.6.15-2.81-.75-4.41-1.67-3.66-1.67-9.34-6.72-9.34-6.72" transform="translate(-13.82 -184.47)"/></g><path class="cls-25" d="M237.94,265.83s7.17-.95,7.3,3.37a5.67,5.67,0,0,1-3.68,5.58s2.77-2.58,2.77-4.54C244.28,266.71,237.94,265.83,237.94,265.83Z" transform="translate(-13.82 -184.47)"/><path class="cls-26" d="M217.94,247.3s7.67-3.62,11.54-.91" transform="translate(-13.82 -184.47)"/><path class="cls-26" d="M247.28,246.51s6.94-2.41,7.66.3" transform="translate(-13.82 -184.47)"/></g><g id="Layer_6" data-name="Layer 6"><path class="cls-27" d="M210.58,362.06a3,3,0,0,1,3-1.28l3.09-9.51-6.74-2.19-4.07,12.54C207.72,362.27,209.65,363.23,210.58,362.06Z" transform="translate(-13.82 -184.47)"/><path class="cls-27" d="M198.89,402.76c-1.45-.15-5.44-1-6-1.15l-16.24,50,6.74,2.19,16.58-51A6.51,6.51,0,0,1,198.89,402.76Z" transform="translate(-13.82 -184.47)"/><path class="cls-28" d="M176.23,450.44c-1.07.54-3.6,6.48-3.42,8.58-.06.8,7.82,4.89,10.11,3.08s2.94-7.84,2.23-8.8S177.3,449.91,176.23,450.44Z" transform="translate(-13.82 -184.47)"/><path class="cls-29" d="M224.77,341.62l-5.51,9.22a1.59,1.59,0,0,1-1.86.7l-7.67-2.49a1.78,1.78,0,0,1-1.22-1.91l1.21-10.42Z" transform="translate(-13.82 -184.47)"/><path class="cls-30" d="M254.58,317l-2.06,6.34a26.21,26.21,0,0,1-33,16.84l-4-1.3a26.21,26.21,0,0,1-16.84-33l2.06-6.34Z" transform="translate(-13.82 -184.47)"/><path class="cls-31" d="M199.16,296.29l.13-.39a2.54,2.54,0,0,1,3.2-1.63L257,312a2.54,2.54,0,0,1,1.63,3.2l-.13.39a2.54,2.54,0,0,1-3.2,1.63l-54.55-17.71A2.55,2.55,0,0,1,199.16,296.29Z" transform="translate(-13.82 -184.47)"/></g><g id="Vetor_Nome" data-name="Vetor Nome"><path class="cls-32" d="M251,342.83c0-.24,2.41-4.18,4-4.42a2.5,2.5,0,0,1,2.38,1.11c.45-.07,1.8-.31,2.14-.34.11-.73-.45-1,2-1.28s4.39-.6,4.48,0-1.14,1.08-1.14,1.08-.27,0,.49.31,1.07.8,1.1,1.15a.7.7,0,0,1-.7.79c-.55,0-.89-.06-1-.64a1.9,1.9,0,0,0-1.89-1.11c-.87.05-1.71,0-1.71,0l.08,1.35a.85.85,0,0,1-.91,1c-.89,0-.8-.88-.8-.88l0-1.25-1.65.21a5.6,5.6,0,0,1,.48.95c.09.32.13.89,0,1.06s-1,.34-1.22,0-.34-1.15-.46-1.35,0-.33-.65-.13-3.33,1.07-3.48,2.19a1.41,1.41,0,0,1-1,.37C251.41,343.07,251,343.07,251,342.83Zm5.06-3a2.54,2.54,0,0,0-1-.76,7.67,7.67,0,0,0-1.44,1.56A6.44,6.44,0,0,0,256.05,339.82Zm5.21-1.37,0,.5,2,0s.87,0,1-.27.39-.55-.56-.48-2.46.26-2.46.26Z" transform="translate(-13.82 -184.47)"/><path class="cls-32" d="M209.24,207.26c0-.71,7.45-11.9,12.18-12.43a7.25,7.25,0,0,1,6.8,3.47c1.32-.15,5.26-.71,6.25-.77.39-2.12-1.21-3,6-3.52s12.83-1.29,13,.49-3.43,3-3.43,3-.79,0,1.39,1c2,1.31,3,2.43,3.08,3.46a2,2,0,0,1-2.13,2.21c-1.62.05-2.57-.28-2.86-1.95s-2.84-3.47-5.38-3.41-5-.09-5-.09l.08,3.94a2.45,2.45,0,0,1-2.73,2.8c-2.59,0-2.22-2.63-2.22-2.63l.19-3.63-4.8.44a16.3,16.3,0,0,1,1.28,2.81c.22.93.27,2.61-.24,3.08s-3,.88-3.54-.07-.88-3.37-1.19-4,0-1-1.89-.45-9.78,2.78-10.33,6c-.83,1-2.48,1-2.92,1S209.23,208,209.24,207.26Zm15-8.19a7.38,7.38,0,0,0-2.69-2.31,22.25,22.25,0,0,0-4.34,4.38C217.15,201.63,224.39,199.56,224.26,199.07Zm15.26-3.45-.1,1.45,5.88.09s2.54,0,2.95-.67,1.18-1.56-1.58-1.45-7.18.49-7.18.49Z" transform="translate(-13.82 -184.47)"/><path class="cls-32" d="M211.78,212.47a136,136,0,0,1,43.84-5.71" transform="translate(-13.82 -184.47)"/><path class="cls-32" d="M253.89,339.09a34.69,34.69,0,0,1,11.17-1.45" transform="translate(-13.82 -184.47)"/><polygon class="cls-33" points="230.78 225.22 223.95 225.75 223.91 225.01 230.73 224.48 230.78 225.22"/></g><g id="Logo"><path class="cls-32" d="M279.93,453.24c0-4.32,45.51-72.74,74.42-75.93,18.91-1,31.1,6.6,41.56,21.22,8.06-.95,32.11-4.36,38.21-4.73,2.38-13-7.39-18.58,36.49-21.5s78.39-7.88,79.59,3-21,18.37-21,18.37-4.83.25,8.52,5.88c12.43,8,18.47,14.84,18.8,21.14s-3.1,13.22-13,13.53-15.68-1.71-17.48-11.94-17.33-21.22-32.9-20.83-30.37-.52-30.37-.52l.52,24.1s1.79,18.13-16.7,17.09c-15.8,0-13.58-16-13.58-16l1.16-22.18-29.36,2.69s6.5,11.46,7.85,17.18,1.67,15.93-1.44,18.83-18.37,5.38-21.62-.45c-2.44-6.4-5.39-20.58-7.27-24.27s-.09-5.79-11.52-2.77-59.74,17-63.14,36.68c-5.07,5.9-15.18,5.8-17.86,5.93S279.89,457.57,279.93,453.24Zm91.78-50.08c-.79-3-13.86-14.24-16.43-14.1s-26,23.8-26.52,26.77S372.5,406.18,371.71,403.16ZM465,382.08l-.59,8.88s35.64.57,35.95.55,15.5.25,18-4.1,7.19-9.54-9.63-8.87-43.88,3-43.88,3Z" transform="translate(-13.82 -184.47)"/><path class="cls-32" d="M290.67,504.4l-2.79-10.65a.51.51,0,0,0-.31-.38,2,2,0,0,0-.76-.06c0-.1-.05-.2-.08-.3q5.31-1.38,10.65-2.71a21.63,21.63,0,0,1,5.52-.8,7.31,7.31,0,0,1,4.6,1.58,5.48,5.48,0,0,1,1.81,3,5.61,5.61,0,0,1-1.82,5.71,9.61,9.61,0,0,1-2.7,1.75,26,26,0,0,1-4.23,1.37q-5.26,1.31-10.51,2.68c0-.1-.05-.2-.08-.29a1.87,1.87,0,0,0,.63-.42A.59.59,0,0,0,290.67,504.4Zm3.83-2.17,5.18-1.31a11.87,11.87,0,0,0,3.62-1.38,3.82,3.82,0,0,0,1.76-4.44,3.77,3.77,0,0,0-2.22-2.77,5.35,5.35,0,0,0-2.17-.38,15.22,15.22,0,0,0-3.11.5c-1.74.43-3.49.87-5.23,1.32C293.05,496.6,293.78,499.42,294.5,502.23Z" transform="translate(-13.82 -184.47)"/><path class="cls-32" d="M317.54,493l.81,3.47q6.12-1.4,12.26-2.73a1.29,1.29,0,0,0,.61-.27.92.92,0,0,0,.26-.54l.45-.1c.24,1.1.48,2.19.71,3.29l-.45.1a1,1,0,0,0-.47-.39,1.27,1.27,0,0,0-.67,0q-8.66,1.88-17.27,3.89c0-.1,0-.2-.07-.3a2,2,0,0,0,.64-.4.5.5,0,0,0,.09-.48q-1.26-5.35-2.54-10.72a.56.56,0,0,0-.3-.39,1.92,1.92,0,0,0-.76-.08c0-.1,0-.2-.07-.3q8.55-2,17.15-3.87a1.33,1.33,0,0,0,.62-.27,1,1,0,0,0,.27-.54l.45-.1.72,3.29-.45.1a.92.92,0,0,0-.47-.38,1.31,1.31,0,0,0-.68,0q-6,1.31-12,2.68c.23,1,.47,2,.7,3,2.59-.59,5.18-1.18,7.77-1.75a1.33,1.33,0,0,0,.62-.27.92.92,0,0,0,.26-.55l.45-.1.72,3.21-.45.1a1,1,0,0,0-.47-.38,1.27,1.27,0,0,0-.67,0C322.71,491.82,320.12,492.4,317.54,493Z" transform="translate(-13.82 -184.47)"/><path class="cls-32" d="M351,479.6l-1.72,3.45-.43-.07a.54.54,0,0,0,0-.15c0-.21-.36-.39-1-.52a14.21,14.21,0,0,0-6.16,0,12.75,12.75,0,0,0-2.6.78,3.69,3.69,0,0,0-1.23.84,1,1,0,0,0-.34.92c.1.48.61.71,1.52.71.47,0,1.46-.11,3-.31l2.25-.3a25.05,25.05,0,0,1,3.28-.25,9.66,9.66,0,0,1,2.31.26,4.05,4.05,0,0,1,1.76.91,2.67,2.67,0,0,1,.87,1.49,3.09,3.09,0,0,1-.84,2.65,8.38,8.38,0,0,1-3.39,2.13,21.72,21.72,0,0,1-3.9,1.14,25.1,25.1,0,0,1-7.75.33,4.69,4.69,0,0,0-1,0,1.45,1.45,0,0,0-.53.33l-.44-.05,1.41-3.56.44.05a.5.5,0,0,0,0,.12c.06.28.32.49.77.65a10,10,0,0,0,3,.35,18.68,18.68,0,0,0,3.7-.35,10.77,10.77,0,0,0,3.11-1.06,3.26,3.26,0,0,0,1-.85,1.14,1.14,0,0,0,.28-.89c-.09-.42-.49-.66-1.21-.7a20.68,20.68,0,0,0-3,.23l-2.2.29c-1.48.2-2.52.31-3.14.35a12,12,0,0,1-1.89-.06,4.53,4.53,0,0,1-2.28-.84,2.62,2.62,0,0,1-1-1.59,3.15,3.15,0,0,1,1.11-3c1.27-1.23,3.39-2.16,6.34-2.76a23.09,23.09,0,0,1,3.52-.45,33.78,33.78,0,0,1,4.19.13,6.41,6.41,0,0,0,1.05,0,1.44,1.44,0,0,0,.65-.35A1.45,1.45,0,0,1,351,479.6Z" transform="translate(-13.82 -184.47)"/><path class="cls-32" d="M360.21,484.17l.66,3.51q6.19-1.14,12.42-2.21a1.43,1.43,0,0,0,.63-.24.93.93,0,0,0,.29-.53l.45-.08.57,3.32-.45.08a.92.92,0,0,0-.45-.41,1.33,1.33,0,0,0-.67,0q-8.76,1.5-17.49,3.16l-.06-.3a1.81,1.81,0,0,0,.66-.38.52.52,0,0,0,.11-.48q-1-5.4-2.08-10.81a.53.53,0,0,0-.28-.4,2,2,0,0,0-.76-.11l-.06-.3q8.66-1.65,17.37-3.14a1.24,1.24,0,0,0,.63-.25.93.93,0,0,0,.29-.53l.46-.08c.2,1.1.39,2.21.58,3.31l-.46.08a.93.93,0,0,0-.45-.4,1.37,1.37,0,0,0-.68,0q-6.1,1.05-12.18,2.17l.57,3c2.62-.48,5.25-1,7.87-1.42a1.24,1.24,0,0,0,.63-.25.93.93,0,0,0,.29-.53l.46-.08c.19,1.08.39,2.16.58,3.24l-.45.08a1,1,0,0,0-.45-.4,1.36,1.36,0,0,0-.68,0Q364.14,483.45,360.21,484.17Z" transform="translate(-13.82 -184.47)"/><path class="cls-32" d="M381.44,477.25c.43,2.6.87,5.2,1.3,7.81a.51.51,0,0,0,.27.41,1.83,1.83,0,0,0,.75.13c0,.1,0,.2.05.3l-5.68.93c0-.1,0-.2-.05-.3a1.9,1.9,0,0,0,.67-.36.5.5,0,0,0,.12-.48q-.92-5.43-1.85-10.86a.51.51,0,0,0-.27-.4,1.85,1.85,0,0,0-.76-.13c0-.1,0-.2-.05-.3l6.66-1.09c0,.1,0,.2,0,.3-.4.14-.58.31-.54.53s.19.3.48.43q6,2.82,12,5.7c-.39-2.54-.78-5.09-1.18-7.63a.51.51,0,0,0-.27-.4,1.82,1.82,0,0,0-.76-.14c0-.1,0-.2-.05-.3l5.78-.85c0,.1,0,.2.05.3a1.74,1.74,0,0,0-.68.35.53.53,0,0,0-.14.46q.82,5.44,1.64,10.9a.51.51,0,0,0,.27.41,1.8,1.8,0,0,0,.75.14c0,.1,0,.2,0,.3-2,.29-4.08.6-6.12.9,0-.1,0-.2-.05-.3.39-.12.57-.28.53-.5s-.29-.31-.8-.55Q387.54,480.08,381.44,477.25Z" transform="translate(-13.82 -184.47)"/><path class="cls-32" d="M412.24,470.76q.67,4.89,1.33,9.78a.54.54,0,0,0,.26.42,1.94,1.94,0,0,0,.75.15c0,.1,0,.2,0,.3q-3,.39-6.08.81c0-.1,0-.2,0-.3a1.83,1.83,0,0,0,.68-.34.51.51,0,0,0,.14-.47c-.45-3.26-.91-6.51-1.37-9.77-2,.27-4.07.56-6.11.84a1.33,1.33,0,0,0-.64.22.91.91,0,0,0-.3.53l-.46.07c-.16-1.11-.33-2.22-.5-3.33l.46-.07a1.1,1.1,0,0,0,.45.42,1.32,1.32,0,0,0,.68,0q8.27-1.17,16.55-2.2a1.5,1.5,0,0,0,.66-.21.92.92,0,0,0,.31-.52l.46-.06c.14,1.11.29,2.22.43,3.34l-.46.06A1,1,0,0,0,419,470a1.4,1.4,0,0,0-.7,0C416.31,470.24,414.28,470.5,412.24,470.76Z" transform="translate(-13.82 -184.47)"/><path class="cls-32" d="M441.85,466.18l.78,7.25a3.92,3.92,0,0,1-.82,3.2c-1.25,1.37-4,2.27-8.35,2.75a20.39,20.39,0,0,1-7.27-.18,3.82,3.82,0,0,1-2.2-1.33,4.72,4.72,0,0,1-.84-2.28c-.3-2.41-.61-4.83-.92-7.24a.55.55,0,0,0-.26-.42,1.92,1.92,0,0,0-.76-.16c0-.1,0-.2,0-.3l6.18-.73c0,.1,0,.2,0,.3a1.7,1.7,0,0,0-.69.32.52.52,0,0,0-.15.47c.26,2.15.53,4.3.79,6.45a5.36,5.36,0,0,0,.39,1.63,1.86,1.86,0,0,0,.81.81q1.5.81,4.83.43t4.62-1.48a1.81,1.81,0,0,0,.59-1,5.06,5.06,0,0,0,0-1.67l-.72-6.45a.53.53,0,0,0-.25-.42,1.88,1.88,0,0,0-.75-.17l0-.3,5.85-.6,0,.3a1.91,1.91,0,0,0-.7.32A.5.5,0,0,0,441.85,466.18Z" transform="translate(-13.82 -184.47)"/><path class="cls-32" d="M451.88,472l.42,4.27a.52.52,0,0,0,.25.42,1.84,1.84,0,0,0,.74.18l0,.3-6.13.58,0-.3a1.83,1.83,0,0,0,.7-.32.53.53,0,0,0,.16-.46q-.56-5.49-1.12-11a.5.5,0,0,0-.25-.42,1.85,1.85,0,0,0-.75-.18l0-.3q6.21-.6,12.43-1.13a25.86,25.86,0,0,1,3.47-.1,8.16,8.16,0,0,1,2.32.47,4.13,4.13,0,0,1,1.69,1.15,3,3,0,0,1-.16,4.07,5.42,5.42,0,0,1-2.36,1.4,20.55,20.55,0,0,1-4.24.71C456.61,471.55,454.25,471.76,451.88,472Zm-.21-2.14,6.6-.59a9.52,9.52,0,0,0,2.75-.51,1.8,1.8,0,0,0,.77-.64,1.38,1.38,0,0,0,.24-.89,1.37,1.37,0,0,0-.39-.83,1.74,1.74,0,0,0-.87-.51,9.69,9.69,0,0,0-2.81,0c-2.21.19-4.42.38-6.63.59C451.45,467.56,451.56,468.7,451.67,469.84Z" transform="translate(-13.82 -184.47)"/><path class="cls-32" d="M470.63,474.72c-.29-3.66-.59-7.33-.88-11a.51.51,0,0,0-.24-.42,2,2,0,0,0-.75-.19l0-.3,6.24-.45a3,3,0,0,1,0,.31,1.67,1.67,0,0,0-.71.29.53.53,0,0,0-.17.46l.84,11a.55.55,0,0,0,.24.44,1.62,1.62,0,0,0,.73.19c0,.1,0,.2,0,.3l-6.16.44c0-.1,0-.2,0-.3a1.79,1.79,0,0,0,.7-.3A.55.55,0,0,0,470.63,474.72Z" transform="translate(-13.82 -184.47)"/><path class="cls-32" d="M480.35,474.05l-.78-11a.49.49,0,0,0-.24-.43,1.86,1.86,0,0,0-.75-.2c0-.1,0-.2,0-.31,3.72-.24,7.45-.46,11.17-.67a22.62,22.62,0,0,1,5.68.25,7.57,7.57,0,0,1,4.32,2.42,5.45,5.45,0,0,1,1.25,3.29,5.58,5.58,0,0,1-2.9,5.27,9.81,9.81,0,0,1-3,1.21,27.28,27.28,0,0,1-4.5.55q-5.52.3-11,.66c0-.1,0-.2,0-.3a1.78,1.78,0,0,0,.71-.3A.54.54,0,0,0,480.35,474.05Zm4.24-1.41,5.44-.31a12.57,12.57,0,0,0,3.89-.67,3.8,3.8,0,0,0,2.6-4,3.75,3.75,0,0,0-1.71-3.13,5.58,5.58,0,0,0-2.11-.78,15.94,15.94,0,0,0-3.22-.09l-5.49.31C484.21,466.84,484.4,469.74,484.59,472.64Z" transform="translate(-13.82 -184.47)"/><path class="cls-32" d="M514.83,460.17a16.22,16.22,0,0,1,8.42,1.62q3.32,1.86,3.4,4.91a4.93,4.93,0,0,1-1.46,3.52q-2.94,3.22-9.82,3.41a16.12,16.12,0,0,1-8.28-1.56,7.2,7.2,0,0,1-2.59-2.26,4.84,4.84,0,0,1-.87-2.51,5,5,0,0,1,1.37-3.63C506.86,461.53,510.14,460.35,514.83,460.17Zm.1,2.22a9.33,9.33,0,0,0-4.74,1.26,3.84,3.84,0,0,0-2.11,3.5,3.92,3.92,0,0,0,2.4,3.34,11,11,0,0,0,9.55-.28,4.92,4.92,0,0,0,1.68-1.65,3.26,3.26,0,0,0,.47-1.76,3.9,3.9,0,0,0-2.38-3.42A9.47,9.47,0,0,0,514.93,462.39Z" transform="translate(-13.82 -184.47)"/><path class="cls-32" d="M535.13,467.7c0,1.44,0,2.88.08,4.32a.52.52,0,0,0,.22.44,1.86,1.86,0,0,0,.73.24c0,.1,0,.2,0,.3l-6.22.08c0-.1,0-.2,0-.3a1.85,1.85,0,0,0,.72-.26.5.5,0,0,0,.19-.44c-.08-3.67-.17-7.35-.26-11a.51.51,0,0,0-.22-.44,1.92,1.92,0,0,0-.74-.24c0-.1,0-.2,0-.31q6.32-.1,12.63-.12a29.73,29.73,0,0,1,3.67.17,9.12,9.12,0,0,1,2.37.6,3.9,3.9,0,0,1,1.76,1.35,3.16,3.16,0,0,1,.56,1.76c0,2.12-1.81,3.35-5.44,3.72l3.92,3.6a10.2,10.2,0,0,0,1.51,1.22,2.59,2.59,0,0,0,1.17.31v.3l-7.22,0v-.3c.5-.05.74-.17.74-.34s-.23-.39-.69-.83q-2-1.92-4.1-3.82C538.69,467.67,536.91,467.68,535.13,467.7Zm0-2.15,6.77-.05c1,0,1.71,0,2.12-.06a4.81,4.81,0,0,0,1.13-.24,1.43,1.43,0,0,0,1.11-1.41,1.46,1.46,0,0,0-1.14-1.41,4.21,4.21,0,0,0-1.13-.24c-.4,0-1.11-.05-2.14,0l-6.79,0C535,463.28,535.07,464.42,535.09,465.55Z" transform="translate(-13.82 -184.47)"/><path class="cls-32" d="M568.86,469.89c-3-.07-6.09-.12-9.13-.16l-1.36,1.81a1.11,1.11,0,0,0-.28.6c0,.28.33.48,1,.59v.3c-2.21,0-4.41,0-6.62-.06v-.3a2.19,2.19,0,0,0,.89-.26,2.8,2.8,0,0,0,.7-.74q3.68-5,7.42-9.92a1.41,1.41,0,0,0,.36-.76c0-.29-.28-.51-.86-.64V460c2.39,0,4.79.08,7.19.13v.31c-.59.1-.88.28-.88.54a1.09,1.09,0,0,0,.28.64q3.81,5.1,7.53,10.22a3.74,3.74,0,0,0,.84.9,2.4,2.4,0,0,0,1,.34c0,.1,0,.2,0,.3l-7.38-.2v-.3c.65-.06,1-.25,1-.57a1.2,1.2,0,0,0-.29-.6Zm-1.24-1.81q-1.61-2.35-3.23-4.7c-1.12,1.53-2.24,3.05-3.35,4.58Z" transform="translate(-13.82 -184.47)"/><path class="cls-32" d="M301.56,521.76s121.88-40.87,267.92-34.89" transform="translate(-13.82 -184.47)"/></g><g id="Caixa"><path class="cls-34" d="M127,537.32H73a15.1,15.1,0,0,1-15.09-15.09V507.41A15.1,15.1,0,0,1,73,492.32h54a15.1,15.1,0,0,1,15.09,15.09v14.82A15.1,15.1,0,0,1,127,537.32Zm9-9.78V512.72a15.1,15.1,0,0,0-15.09-15.09H79.05A15.1,15.1,0,0,0,64,512.72v14.82a15.1,15.1,0,0,0,15.09,15.09h41.82A15.08,15.08,0,0,0,136,527.54Z" transform="translate(-13.82 -184.47)"/><path class="cls-35" d="M63.61,524.46h-6a1.68,1.68,0,0,1-1.68-1.68v-1a1.68,1.68,0,0,1,1.68-1.68h6a1.68,1.68,0,0,1,1.68,1.68v1A1.67,1.67,0,0,1,63.61,524.46Z" transform="translate(-13.82 -184.47)"/><path class="cls-35" d="M141.78,524.46h-5.57a1.9,1.9,0,0,1-1.9-1.9V522a1.9,1.9,0,0,1,1.9-1.9h5.57a1.9,1.9,0,0,1,1.9,1.9v.54A1.9,1.9,0,0,1,141.78,524.46Z" transform="translate(-13.82 -184.47)"/><path class="cls-36" d="M168.91,623.79H33a14,14,0,0,1-14-14v-67.5a14,14,0,0,1,14-14h136a14,14,0,0,1,14,14v67.5A14,14,0,0,1,168.91,623.79Z" transform="translate(-13.82 -184.47)"/><path class="cls-34" d="M43.82,624.48H24.21a5.63,5.63,0,0,1-5.63-5.63V605H43.81v19.45Z" transform="translate(-13.82 -184.47)"/><path class="cls-34" d="M158.66,624.48h19.61a5.63,5.63,0,0,0,5.63-5.63V605H158.67v19.45Z" transform="translate(-13.82 -184.47)"/><path class="cls-37" d="M190.43,553.71H13.82V530.6a8.84,8.84,0,0,1,8.84-8.84h159.5A8.84,8.84,0,0,1,191,530.6v22.54A.57.57,0,0,1,190.43,553.71Z" transform="translate(-13.82 -184.47)"/><path class="cls-38" d="M49.5,563.57H46.93a4.29,4.29,0,0,1-4.29-4.29v-9.43a4.29,4.29,0,0,1,4.29-4.29H49.5a4.29,4.29,0,0,1,4.29,4.29v9.43A4.29,4.29,0,0,1,49.5,563.57Zm-.16-12.64H47.09v7.31h2.25Z" transform="translate(-13.82 -184.47)"/><path class="cls-38" d="M153.32,563.57h-2.57a4.29,4.29,0,0,1-4.29-4.29v-9.43a4.29,4.29,0,0,1,4.29-4.29h2.57a4.29,4.29,0,0,1,4.29,4.29v9.43A4.29,4.29,0,0,1,153.32,563.57Zm-.16-12.64h-2.25v7.31h2.25Z" transform="translate(-13.82 -184.47)"/></g><path class="cls-32" d="M340.75,534.94l2.49,3.55-.34.22a1,1,0,0,0-.6-.33A5,5,0,0,0,341,539a18.36,18.36,0,0,1-3.78,1.63,13.64,13.64,0,0,1-3.65.38,11.8,11.8,0,0,1-6.92-2,8.1,8.1,0,0,1-2.47-2.81,8.31,8.31,0,0,1-1-4.16,8.11,8.11,0,0,1,2-5.29c1.92-2.22,4.75-3.29,8.52-3.23a13.9,13.9,0,0,1,3.56.47,19.39,19.39,0,0,1,3.71,1.7,5,5,0,0,0,1.3.59,1,1,0,0,0,.59-.32l.34.23-2.44,3.52-.34-.23c0-.13,0-.24,0-.33a1,1,0,0,0-.32-.68,5.71,5.71,0,0,0-1.15-.77,10.17,10.17,0,0,0-4.82-1.29,7.44,7.44,0,0,0-4.82,1.36,5.35,5.35,0,0,0-2.17,4.38,5.41,5.41,0,0,0,2.08,4.49,7.58,7.58,0,0,0,4.85,1.53,9.87,9.87,0,0,0,4.89-1.18,5.15,5.15,0,0,0,1.15-.75.92.92,0,0,0,.33-.67,2,2,0,0,0,0-.32Z" transform="translate(-13.82 -184.47)"/><path class="cls-32" d="M354.87,523.51a10.67,10.67,0,0,1,7.3,2.29,8.37,8.37,0,0,1,3,6.4,8.11,8.11,0,0,1-1.22,4.57c-1.7,2.78-4.61,4.22-8.72,4.26a10.71,10.71,0,0,1-7.39-2.35,8.55,8.55,0,0,1-1.62-11C348,525,350.82,523.6,354.87,523.51Zm.07,2.88a6.15,6.15,0,0,0-4.15,1.47,6,6,0,0,0,.13,8.89,6.38,6.38,0,0,0,4.28,1.4,6.18,6.18,0,0,0,4.21-1.49,5.55,5.55,0,0,0,1.47-2.12,5.8,5.8,0,0,0,.4-2.29,5.62,5.62,0,0,0-2.1-4.48A6.55,6.55,0,0,0,354.94,526.39Z" transform="translate(-13.82 -184.47)"/><path class="cls-32" d="M372.16,528.77q.21,5.15.43,10.29a.82.82,0,0,0,.21.57,1.27,1.27,0,0,0,.66.3l0,.4-5.21.16c0-.14,0-.27,0-.4a1.31,1.31,0,0,0,.64-.34.85.85,0,0,0,.16-.59q-.29-7.15-.53-14.32a.87.87,0,0,0-.2-.57,1.36,1.36,0,0,0-.65-.3v-.4l5.91-.18v.4c-.36.1-.53.3-.52.59a1,1,0,0,0,.38.64q5,4.69,10.12,9.31-.29-5-.54-10a.82.82,0,0,0-.21-.57,1.36,1.36,0,0,0-.65-.29l0-.4c1.7-.07,3.39-.15,5.09-.24,0,.13,0,.26,0,.39a1.27,1.27,0,0,0-.61.36.85.85,0,0,0-.15.58q.4,7.15.84,14.31a.87.87,0,0,0,.22.57,1.45,1.45,0,0,0,.67.29l0,.39c-1.85.1-3.71.19-5.57.27l0-.39c.36-.1.53-.28.51-.56s-.23-.45-.68-.84Q377.26,533.52,372.16,528.77Z" transform="translate(-13.82 -184.47)"/><path class="cls-32" d="M406.54,523l-1.74,4.12-.38-.17a1.32,1.32,0,0,0,0-.2c0-.28-.29-.56-.81-.85a9.44,9.44,0,0,0-5.42-1.17,8.43,8.43,0,0,0-2.36.47,2.94,2.94,0,0,0-1.16.82,1.51,1.51,0,0,0-.39,1.1c0,.64.46,1.05,1.27,1.23a18.38,18.38,0,0,0,2.66.2l2,.07a16.22,16.22,0,0,1,2.93.31,6.83,6.83,0,0,1,2,.76,4.31,4.31,0,0,1,1.51,1.49,4.57,4.57,0,0,1,.68,2.07,4.67,4.67,0,0,1-.93,3.25,6.4,6.4,0,0,1-3.21,2.11,13.76,13.76,0,0,1-3.62.7,15.86,15.86,0,0,1-7-1.18,3.35,3.35,0,0,0-.88-.27,1,1,0,0,0-.52.3l-.38-.17c.55-1.41,1.09-2.83,1.63-4.25l.39.15c0,.08,0,.13,0,.17a1.34,1.34,0,0,0,.62,1,7.18,7.18,0,0,0,2.67,1.08,11.41,11.41,0,0,0,3.36.31,7,7,0,0,0,2.88-.75,2.86,2.86,0,0,0,1-.9,1.74,1.74,0,0,0,.31-1.09,1.28,1.28,0,0,0-1-1.14,13.51,13.51,0,0,0-2.68-.27l-2-.07a27.36,27.36,0,0,1-2.84-.2,7.74,7.74,0,0,1-1.68-.48,4.2,4.2,0,0,1-1.94-1.57,4.47,4.47,0,0,1-.75-2.26,4.6,4.6,0,0,1,1.29-3.63c1.25-1.31,3.18-2,5.81-2.21A14.36,14.36,0,0,1,401,522a26.26,26.26,0,0,1,3.67,1,4.11,4.11,0,0,0,.92.22,1.15,1.15,0,0,0,.59-.33Z" transform="translate(-13.82 -184.47)"/><path class="cls-32" d="M418.8,523.35q.63,6.39,1.27,12.77a.79.79,0,0,0,.24.56,1.36,1.36,0,0,0,.67.27l0,.39-5.48.49c0-.13,0-.26,0-.4a1.4,1.4,0,0,0,.62-.37.84.84,0,0,0,.12-.6q-.62-6.39-1.2-12.77l-5.37.44a.87.87,0,0,0-.57.22,1.27,1.27,0,0,0-.28.65l-.4,0c-.12-1.46-.25-2.91-.37-4.36l.41,0a1.26,1.26,0,0,0,.38.6.88.88,0,0,0,.59.12q7.23-.57,14.43-1.28a.88.88,0,0,0,.57-.23,1.2,1.2,0,0,0,.26-.65l.41,0,.45,4.35-.4,0a1.36,1.36,0,0,0-.39-.59,1,1,0,0,0-.61-.11C422.37,523,420.59,523.19,418.8,523.35Z" transform="translate(-13.82 -184.47)"/><path class="cls-32" d="M432.57,529.24q.31,2.79.65,5.58a.81.81,0,0,0,.25.55,1.27,1.27,0,0,0,.67.25l.05.39-5.46.58-.05-.39a1.45,1.45,0,0,0,.61-.39.83.83,0,0,0,.11-.59q-.79-7.11-1.57-14.24a.81.81,0,0,0-.24-.56,1.28,1.28,0,0,0-.66-.26l0-.39q5.37-.56,10.71-1.17a18.45,18.45,0,0,1,3.13-.15,5.69,5.69,0,0,1,2.09.54,3.92,3.92,0,0,1,1.7,1.55,5.55,5.55,0,0,1,.76,2.2c.36,2.74-1,4.54-4.06,5.38q2,2.11,4,4.23a10.76,10.76,0,0,0,1.51,1.4,1.7,1.7,0,0,0,1.07.26l.05.4-6.3.77-.05-.4c.43-.11.63-.29.6-.52a3.38,3.38,0,0,0-.74-1c-1.38-1.5-2.76-3-4.13-4.53Zm-.32-2.77,5.82-.65a15.16,15.16,0,0,0,1.81-.29,2.82,2.82,0,0,0,.93-.42,1.87,1.87,0,0,0,.73-1.93,1.9,1.9,0,0,0-1.18-1.71,2.66,2.66,0,0,0-1-.2,18,18,0,0,0-1.83.14c-1.92.23-3.85.44-5.78.65C431.91,523.53,432.08,525,432.25,526.47Z" transform="translate(-13.82 -184.47)"/><path class="cls-32" d="M464.91,516.26q.72,4.69,1.46,9.37a6.45,6.45,0,0,1-.38,4.13c-1,1.77-3.35,2.94-7.18,3.48a12.77,12.77,0,0,1-6.54-.42,4.08,4.08,0,0,1-2.06-1.81,8.65,8.65,0,0,1-.9-3q-.65-4.71-1.27-9.4a.86.86,0,0,0-.25-.56,1.33,1.33,0,0,0-.67-.23l-.05-.4,5.32-.7.05.39a1.3,1.3,0,0,0-.58.4.89.89,0,0,0-.09.61c.38,2.79.77,5.57,1.16,8.36a10.78,10.78,0,0,0,.47,2.12,2.5,2.5,0,0,0,.79,1.08c.93.72,2.37.95,4.34.67s3.29-.89,4-1.84a2.49,2.49,0,0,0,.43-1.25,10.57,10.57,0,0,0-.16-2.16q-.64-4.18-1.27-8.35a.89.89,0,0,0-.26-.55,1.37,1.37,0,0,0-.67-.23l-.06-.39,5-.74.06.39a1.27,1.27,0,0,0-.57.41A.88.88,0,0,0,464.91,516.26Z" transform="translate(-13.82 -184.47)"/><path class="cls-32" d="M477.56,515.75q1.1,6.32,2.2,12.64a.82.82,0,0,0,.27.54,1.43,1.43,0,0,0,.69.22c0,.13,0,.26.07.39l-5.38.89-.07-.39a1.52,1.52,0,0,0,.58-.42A.91.91,0,0,0,476,529q-1.08-6.32-2.14-12.65c-1.76.29-3.51.57-5.27.84a.89.89,0,0,0-.55.26,1.21,1.21,0,0,0-.22.66l-.4.07-.69-4.33.4-.06a1.38,1.38,0,0,0,.43.57.84.84,0,0,0,.59.08q7.1-1.11,14.17-2.35a.85.85,0,0,0,.55-.27,1.23,1.23,0,0,0,.21-.67l.39-.06.78,4.3-.4.07a1.34,1.34,0,0,0-.43-.56.92.92,0,0,0-.61-.06Z" transform="translate(-13.82 -184.47)"/><path class="cls-32" d="M494.3,509.61a10.31,10.31,0,0,1,7.43,1,8.43,8.43,0,0,1,4,5.79,8.26,8.26,0,0,1-.39,4.71c-1.16,3-3.72,4.95-7.67,5.7a10.3,10.3,0,0,1-7.53-1,8.34,8.34,0,0,1-2.7-2.62,8.73,8.73,0,0,1-1.23-3.14,8.56,8.56,0,0,1,.46-4.81C487.88,512.25,490.41,510.4,494.3,509.61Zm.56,2.82a6,6,0,0,0-3.75,2.17,6,6,0,0,0,1.67,8.73,6.14,6.14,0,0,0,4.37.64,6,6,0,0,0,3.79-2.2,5.56,5.56,0,0,0,1.06-2.34,5.84,5.84,0,0,0,0-2.32,5.67,5.67,0,0,0-2.8-4.06A6.36,6.36,0,0,0,494.86,512.43Z" transform="translate(-13.82 -184.47)"/><path class="cls-32" d="M513.19,516.31l1.2,5.48a.87.87,0,0,0,.31.53,1.23,1.23,0,0,0,.68.18l.09.38L510.15,524l-.08-.39a1.35,1.35,0,0,0,.56-.45.81.81,0,0,0,.05-.59q-1.5-7-3-14a.85.85,0,0,0-.29-.54,1.35,1.35,0,0,0-.68-.19l-.08-.38q5.22-1.09,10.43-2.24a16.1,16.1,0,0,1,3.06-.46,5.59,5.59,0,0,1,2.12.32,4,4,0,0,1,1.83,1.37,5.79,5.79,0,0,1,1,2.12c.63,2.68-.52,4.61-3.46,5.76q2.16,1.9,4.33,3.8a10.24,10.24,0,0,0,1.64,1.25,1.62,1.62,0,0,0,1.07.15c0,.13.06.26.1.39l-6.13,1.4-.09-.39c.41-.16.59-.35.53-.58a3.08,3.08,0,0,0-.82-.92q-2.28-2-4.53-4.1Zm-.59-2.72,5.66-1.24a15.14,15.14,0,0,0,1.75-.46,3,3,0,0,0,.88-.52,1.89,1.89,0,0,0,.52-2,1.93,1.93,0,0,0-1.34-1.58,2.81,2.81,0,0,0-1-.09,18.14,18.14,0,0,0-1.79.32q-2.81.63-5.63,1.23C512,510.69,512.28,512.14,512.6,513.59Z" transform="translate(-13.82 -184.47)"/><path class="cls-32" d="M542,512.25q-3.81,1-7.62,1.88c-.19.86-.37,1.72-.56,2.59a1.81,1.81,0,0,0-.05.81c.09.35.42.53,1,.54l.09.38-5.59,1.33-.09-.39a1.52,1.52,0,0,0,.67-.51,3.19,3.19,0,0,0,.37-1.08q1.58-7,3.07-14.11a2.54,2.54,0,0,0,.06-1c-.1-.37-.39-.58-.9-.63,0-.12-.06-.25-.1-.38l5.86-1.45.09.39c-.44.25-.62.55-.53.89a1.83,1.83,0,0,0,.43.73q4.74,5.54,9.6,11a4.86,4.86,0,0,0,1,.91,1.59,1.59,0,0,0,.92.17c0,.13.07.26.11.38l-6.19,1.6c0-.13-.06-.26-.1-.39.52-.22.73-.54.63-.95a2.25,2.25,0,0,0-.44-.68Zm-1.63-2c-1.4-1.72-2.79-3.45-4.17-5.17L535,511.62Z" transform="translate(-13.82 -184.47)"/></svg>